HIERARCHY
ROOT Bip001_Pelvis
{
  OFFSET 34.4345 95.6767 -26.8758
  CHANNELS 6 Xposition Yposition Zposition Zrotation Xrotation Yrotation
  JOINT Bip001_Spine
  {
    OFFSET 1.4188e-005 10.2191 -0.0116013
    CHANNELS 3 Zrotation Xrotation Yrotation
    JOINT Bip001_L_Thigh
    {
      OFFSET 11.0458 -10.2192 0.0116197
      CHANNELS 3 Zrotation Xrotation Yrotation
      JOINT Bip001_L_Calf
      {
        OFFSET -0.707118 -44.0221 0.360014
        CHANNELS 3 Zrotation Xrotation Yrotation
        JOINT Bip001_L_Foot
        {
          OFFSET -0.651902 -40.5938 -3.56146
          CHANNELS 3 Zrotation Xrotation Yrotation
          JOINT Bip001_L_Toe0
          {
            OFFSET 0.0530839 -10.2181 13.1504
            CHANNELS 3 Zrotation Xrotation Yrotation
            End Site
            {
              OFFSET -1.02532e-005 0 7.55606
            }
          }
        }
      }
    }
    JOINT Bip001_R_Thigh
    {
      OFFSET -11.0458 -10.2191 0.0115893
      CHANNELS 3 Zrotation Xrotation Yrotation
      JOINT Bip001_R_Calf
      {
        OFFSET 0.706994 -44.0221 0.35984
        CHANNELS 3 Zrotation Xrotation Yrotation
        JOINT Bip001_R_Foot
        {
          OFFSET 0.651786 -40.5938 -3.5613
          CHANNELS 3 Zrotation Xrotation Yrotation
          JOINT Bip001_R_Toe0
          {
            OFFSET -0.0531479 -10.2181 13.1504
            CHANNELS 3 Zrotation Xrotation Yrotation
            End Site
            {
              OFFSET -1.02894e-005 0 7.55606
            }
          }
        }
      }
    }
    JOINT Bip001_Spine1
    {
      OFFSET 1.87041e-005 14.5736 1.08638
      CHANNELS 3 Zrotation Xrotation Yrotation
      JOINT Bip001_Spine2
      {
        OFFSET 2.24614e-005 14.5058 -1.69078
        CHANNELS 3 Zrotation Xrotation Yrotation
        JOINT Bip001_Neck
        {
          OFFSET 2.20278e-005 15.3945 -0.489414
          CHANNELS 3 Zrotation Xrotation Yrotation
          JOINT Bip001_L_Clavicle
          {
            OFFSET 6.06036 -0.000579998 0.00836775
            CHANNELS 3 Zrotation Xrotation Yrotation
            JOINT Bip001_L_UpperArm
            {
              OFFSET 11.5509 -0.0600302 0.00193952
              CHANNELS 3 Zrotation Xrotation Yrotation
              JOINT Bip001_L_Forearm
              {
                OFFSET 25.9523 0.0806089 -2.15551
                CHANNELS 3 Zrotation Xrotation Yrotation
                JOINT Bip001_L_Hand
                {
                  OFFSET 32.2475 0.153767 1.63968
                  CHANNELS 3 Zrotation Xrotation Yrotation
                  JOINT Bip001_L_Finger0
                  {
                    OFFSET 6.04639 -2.20976 5.90322
                    CHANNELS 3 Zrotation Xrotation Yrotation
                    End Site
                    {
                      OFFSET 4.22375 -1.43895 0.606485
                    }
                  }
                  JOINT Bip001_L_Finger1
                  {
                    OFFSET 11.0826 -0.704819 -0.198153
                    CHANNELS 3 Zrotation Xrotation Yrotation
                    End Site
                    {
                      OFFSET 6.20027 -0.397518 -0.0787166
                    }
                  }
                }
              }
            }
          }
          JOINT Bip001_R_Clavicle
          {
            OFFSET -6.06037 -0.000563197 0.00835105
            CHANNELS 3 Zrotation Xrotation Yrotation
            JOINT Bip001_R_UpperArm
            {
              OFFSET -11.5509 -0.0599978 0.00190698
              CHANNELS 3 Zrotation Xrotation Yrotation
              JOINT Bip001_R_Forearm
              {
                OFFSET -25.9523 0.0806822 -2.15589
                CHANNELS 3 Zrotation Xrotation Yrotation
                JOINT Bip001_R_Hand
                {
                  OFFSET -32.2475 0.153859 1.63989
                  CHANNELS 3 Zrotation Xrotation Yrotation
                  JOINT Bip001_R_Finger0
                  {
                    OFFSET -6.04641 -2.20976 5.90317
                    CHANNELS 3 Zrotation Xrotation Yrotation
                    End Site
                    {
                      OFFSET -4.22376 -1.43895 0.60647
                    }
                  }
                  JOINT Bip001_R_Finger1
                  {
                    OFFSET -11.0826 -0.704794 -0.198182
                    CHANNELS 3 Zrotation Xrotation Yrotation
                    End Site
                    {
                      OFFSET -6.20028 -0.397504 -0.0787333
                    }
                  }
                }
              }
            }
          }
          JOINT Bip001_Head
          {
            OFFSET 1.09673e-005 11.2744 2.05948
            CHANNELS 3 Zrotation Xrotation Yrotation
            End Site
            {
              OFFSET 2.89576e-005 20.8808 -2.77728e-005
            }
          }
        }
      }
    }
  }
}
MOTION
Frames:	9
Frame Time:	0.04
33.6478 93.7531 -33.6414 1.8133 -4.50697 -17.2699 0.536324 3.10368 -1.43348 4.32348 -2.66824 16.7501 -3.36479 17.7331 9.61157 6.54796 -5.87509 0.0621349 1.73746 -8.72371 -0.119435 -6.31105 -14.68 7.07892 -1.35806 26.6577 5.4914 -8.05373 -12.8831 2.61198 3.36461 -11.2404 3.88516 1.15288 6.19258 -2.90241 1.15288 6.19263 -2.90241 4.15054 -2.86353 7.72268 -24.7022 8.39388 -11.4171 -38.4288 39.4467 -6.4498 19.3855 0.36805 -39.1343 8.89994 -0.235191 -8.8113 1.76556e-031 -1.59028e-015 6.36111e-015 1.65522e-031 -2.38542e-015 3.97569e-015 23.5981 4.1044 1.85652 66.1791 18.6713 -13.8151 -23.7215 -0.832361 14.3742 -6.04986 -8.80075 1.99374 4.00675e-016 0 1.49088e-016 1.0871e-016 -3.97569e-016 1.98785e-016 -2.65778 -10.589 9.16088 
34.3205 93.2659 -33.4007 2.07362 -4.91912 -18.1765 0.48176 3.15409 -1.50119 4.28831 -3.16946 16.4331 -4.91618 19.9581 11.459 8.01269 -7.01318 0.141881 2.0239 -9.17587 -0.323142 -6.99125 -15.8692 7.6212 -1.0874 29.1609 5.65433 -8.19353 -13.9127 2.99756 3.52249 -11.4129 3.63484 1.04667 6.29453 -3.03627 1.04792 6.2945 -3.03597 4.00344 -2.57394 8.62761 -24.1753 8.42205 -12.3629 -38.1482 39.2049 -6.87924 19.2266 0.706647 -39.2256 8.87175 -0.320073 -8.80799 6.36111e-015 -1.59028e-015 -0 3.18055e-015 -1.59028e-015 3.97569e-015 23.705 3.42382 1.04154 67.4865 17.9173 -15.3001 -20.2173 -6.26266 11.7447 -3.33204 -8.91549 0.799596 6.95746e-016 0 -0 4.27387e-015 0 -0 -3.01361 -10.7618 10.0791 
35.0661 92.553 -33.0154 1.95655 -5.90728 -19.1527 0.4785 3.34532 -1.55821 4.51941 -3.4457 16.6105 -6.75462 23.0115 13.0372 10.5769 -8.02921 0.235807 2.47877 -10.0491 -0.562194 -7.55542 -16.7529 7.83797 -1.15776 32.1868 6.04917 -8.49392 -15.1922 3.37745 3.6916 -11.8138 3.73485 1.05245 6.67626 -3.15235 1.0519 6.67627 -3.15241 4.20351 -2.27714 9.43072 -23.9099 8.50303 -13.5163 -38.2712 38.8552 -7.19598 19.0463 1.20086 -38.7649 8.46215 -0.397062 -8.88716 6.36111e-015 -4.77083e-015 5.56597e-015 3.18055e-015 -4.77083e-015 2.38542e-015 23.1267 2.52168 -0.679144 68.4043 16.6984 -17.0799 -17.158 -11.5036 12.1228 -3.33652 -8.06473 -1.30687 -3.97569e-016 0 1.59028e-015 3.97569e-016 -3.18056e-015 3.18055e-015 -3.70252 -11.1475 11.033 
35.7768 91.8127 -32.6317 1.56032 -6.91189 -20.092 0.499631 3.55198 -1.59499 5.06659 -3.68232 16.5308 -8.6778 26.4678 14.7482 10.291 -10.9958 0.518482 1.97972 -9.42304 -0.0806529 -7.91862 -17.4772 8.52897 -0.8784 35.0089 6.18737 -8.98203 -16.3258 3.34607 3.87385 -12.3316 3.92301 1.10152 7.08849 -3.23031 1.10152 7.0885 -3.23031 4.65502 -1.83359 9.94629 -23.945 8.42166 -14.6671 -38.6275 39.0221 -7.2509 18.4659 1.05945 -37.9369 8.57291 -0.187913 -8.46999 9.54166e-015 -6.36111e-015 -0 3.18055e-015 -6.36111e-015 -3.18055e-015 22.1813 1.61588 -2.24636 68.701 15.1337 -18.6585 -16.7814 -13.1278 12.7293 -5.1829 -7.48929 -1.79966 -0 0 6.36111e-015 -0 0 4.77083e-015 -4.38109 -11.7314 11.7758 
36.4573 90.9611 -32.25 1.31163 -7.70083 -21.0838 0.509394 3.69747 -1.70901 5.14848 -4.19691 16.8665 -9.79306 29.7863 16.4011 11.22 -12.9045 0.726077 2.07695 -9.4418 -0.031553 -8.04081 -18.4702 9.32562 -1.16024 38.0207 6.8655 -9.70507 -17.4627 3.03883 4.17394 -13.1045 4.15416 1.13753 7.37787 -3.46213 1.13518 7.37788 -3.46214 4.64191 -2.01301 10.613 -23.7697 8.85711 -15.2833 -39.2015 39.4573 -6.85159 18.4851 1.07097 -37.0256 7.76314 -0.162579 -8.3124 1.76556e-031 3.18055e-015 -3.18055e-015 4.41391e-032 1.59028e-015 -1.59028e-015 21.705 1.28847 -3.81593 68.5169 14.1477 -19.9825 -18.6306 -11.9078 13.2264 -6.25695 -8.24075 -0.090645 -3.53112e-031 -6.36111e-015 -3.18055e-015 7.95139e-016 -3.18056e-015 -0 -4.41735 -11.3792 12.4334 
37.1328 90.141 -31.8781 0.971959 -8.70021 -22.1259 0.473328 3.86437 -1.8596 4.89145 -4.39011 17.2277 -10.4156 32.4719 17.621 13.6015 -13.2225 0.882377 2.21672 -10.3783 0.0654864 -8.17961 -19.167 10.4154 -1.13764 40.7525 6.92392 -10.1188 -18.5513 3.0674 4.40054 -13.6815 4.33781 1.07312 7.71121 -3.76356 1.07312 7.71123 -3.76357 4.6285 -2.27892 11.3054 -23.7235 9.24893 -15.2654 -39.8576 40.2547 -6.10347 18.4822 0.871062 -36.2902 7.25542 0.0613708 -7.80089 3.18055e-015 1.59028e-015 -4.77083e-015 9.54166e-015 3.18056e-015 -0 21.5842 1.10479 -5.13966 67.5457 13.6262 -20.709 -20.948 -9.28887 14.0365 -7.744 -9.83236 2.26738 -7.95139e-016 0 -6.36111e-015 -3.18055e-015 3.18056e-015 -3.18055e-015 -4.29557 -10.6222 13.0921 
37.6742 89.381 -31.4707 0.422536 -9.87276 -23.0563 0.384553 4.03328 -1.92952 5.23759 -3.95429 17.6766 -11.8097 34.8668 18.9559 14.2678 -14.8266 1.16632 2.13447 -10.3936 0.179324 -8.13527 -19.3404 10.9681 -1.51271 43.105 7.39558 -10.4671 -19.5569 3.24977 4.61134 -14.1609 4.45098 0.908795 8.05115 -3.90072 0.908796 8.05117 -3.90072 4.78869 -1.73384 11.6119 -23.8357 8.84936 -15.6103 -40.056 41.5902 -5.99462 17.9197 0.793123 -34.4442 7.20062 -0.0904001 -7.65722 -3.18055e-015 1.59028e-015 -4.77083e-015 -3.18055e-015 0 -0 21.6444 0.380858 -5.57077 65.7761 12.623 -20.6229 -22.752 -6.94514 15.6231 -11.1535 -10.5469 4.15632 1.59028e-015 -3.18055e-015 -0 1.19271e-015 -3.18056e-015 1.59028e-015 -4.19585 -10.7188 13.4642 
38.0736 88.8083 -31.1817 -0.246242 -10.6663 -23.6612 0.319559 4.1439 -1.96629 5.90603 -3.58821 17.8996 -13.2291 36.7225 20.1346 14.5847 -16.1926 1.39107 2.08492 -10.3368 0.173136 -8.01092 -19.3557 11.1211 -1.65646 44.5882 7.72281 -10.8427 -20.2054 3.16394 4.81495 -14.8514 4.88467 0.784451 8.27429 -3.96792 0.784894 8.27429 -3.96977 5.07293 -1.35717 12.0434 -24.0047 8.65432 -15.9426 -40.2709 42.8317 -6.00071 17.5027 0.885584 -32.34 6.61959 0.0233806 -7.25276 -1.32417e-031 -1.59028e-015 -4.77083e-015 3.18055e-015 -1.59028e-015 -6.36111e-015 21.786 -0.156679 -5.92546 63.6184 9.86025 -20.0313 -24.1151 -5.25697 18.7591 -15.2354 -10.6507 5.35367 -3.18055e-015 -3.18055e-015 1.59028e-015 3.97569e-016 -6.36111e-015 1.59028e-015 -4.29453 -11.2267 14.0102 
38.5001 88.3326 -30.8912 -0.588303 -11.5405 -24.1819 0.183299 4.23003 -1.9063 5.80001 -3.17583 19.7249 -12.3415 38.4571 18.8317 14.8507 -17.1192 1.55091 2.24264 -10.4829 0.0417026 -8.26557 -19.2793 11.2553 -1.61759 45.9364 7.73981 -11.1082 -20.969 3.15785 4.87019 -15.1654 5.22968 0.510142 8.45155 -3.84196 0.510145 8.45158 -3.84198 5.24526 -1.7222 12.4519 -24.0775 9.18413 -16.1597 -40.6274 43.208 -5.76961 17.5318 1.93495 -30.566 5.35233 0.281303 -6.5936 3.18055e-015 0 3.18055e-015 3.18055e-015 0 1.59028e-015 21.7126 0.0170283 -6.57601 62.0378 5.19372 -19.2764 -25.8972 -4.23509 23.6765 -19.9549 -11.5623 7.06952 3.97569e-015 0 -1.59028e-015 8.74652e-015 -3.18056e-015 -3.18055e-015 -4.4942 -10.8248 14.4674 
